<?xml version="1.0" encoding="UTF-8"?>
<svg width="100%" height="100%" viewBox="0 0 242 38" version="1.1" xmlns="http://www.w3.org/2000/svg" xmlns:xlink="http://www.w3.org/1999/xlink">
    <title>Group 2</title>
    <g id="Page-1" stroke="none" stroke-width="1" fill="none" fill-rule="evenodd">
        <g id="Group-2" fill="#00A3DD" fill-rule="nonzero">
            <g id="abstract,-geometric,-figure,-shape,-mark,-logo,-sign,-friends,-pair,-round,-logo,-mark,-">
                <path d="M19.7820163,11 C19.2425068,11 18.7629428,11.2312634 18.4632153,11.5781585 C16.6648501,13.6017131 13.9673025,14.8736617 11.0299728,14.8736617 C8.03269755,14.8736617 5.39509537,13.6017131 3.59673025,11.5781585 C3.23705722,11.2312634 2.75749319,11 2.27792916,11 L1.79836512,11 C0.779291553,11 0,11.751606 0,12.7344754 L0,18.51606 C0,29.2698073 9.05177112,38 20.2016349,38 L20.2016349,38 C21.2207084,38 22,37.248394 22,36.2655246 L22,12.7344754 C22,11.751606 21.2207084,11 20.2016349,11 L19.7820163,11 Z" id="Path"></path>
                <circle id="Oval" cx="11" cy="6" r="6"></circle>
                <path d="M44.7759563,11 C44.2349727,11 43.7540984,11.2312634 43.4535519,11.5781585 C41.6502732,13.6017131 38.9453552,14.8736617 36,14.8736617 C32.9945355,14.8736617 30.3497268,13.6017131 28.5464481,11.5781585 C28.1857923,11.2312634 27.704918,11 27.2240437,11 L26.8032787,11 C25.7814208,11 25,11.751606 25,12.7344754 L25,36.2655246 C25,37.248394 25.7814208,38 26.8032787,38 L26.8032787,38 C37.9234973,37.9421842 47,29.2698073 47,18.51606 L47,12.7344754 C47,11.751606 46.2185792,11 45.1967213,11 L44.7759563,11 Z" id="Path"></path>
                <circle id="Oval" cx="36" cy="6" r="6"></circle>
            </g>
            <g id="ATHENID" transform="translate(58.4075, 2.5)">
                <path d="M0,31.5 L7.065,31.5 L9.09,25.605 L22.365,25.605 L24.39,31.5 L31.455,31.5 L20.07,0 L11.385,0 L0,31.5 Z M10.8,20.61 L15.525,6.885 L15.93,6.885 L20.655,20.61 L10.8,20.61 Z" id="Shape"></path>
                <polygon id="Path" points="37.845 31.5 44.595 31.5 44.595 5.985 53.73 5.985 53.73 0 28.71 0 28.71 5.985 37.845 5.985"></polygon>
                <polygon id="Path" points="76.14 31.5 82.89 31.5 82.89 0 76.14 0 76.14 12.96 63.81 12.96 63.81 0 57.06 0 57.06 31.5 63.81 31.5 63.81 18.54 76.14 18.54"></polygon>
                <polygon id="Path" points="87.795 31.5 109.755 31.5 109.755 25.65 94.545 25.65 94.545 18.18 107.955 18.18 107.955 12.915 94.545 12.915 94.545 5.85 109.305 5.85 109.305 0 87.795 0"></polygon>
                <polygon id="Path" points="113.31 31.5 120.06 31.5 120.06 11.205 120.195 11.205 132.615 31.5 139.905 31.5 139.905 0 133.155 0 133.155 20.7 133.02 20.7 120.33 0 113.31 0"></polygon>
                <polygon id="Path" points="144.81 31.5 151.56 31.5 151.56 0 144.81 0"></polygon>
                <path d="M156.465,31.5 L168.39,31.5 C178.2,31.5 183.285,25.875 183.285,15.75 C183.285,5.625 178.2,0 168.39,0 L156.465,0 L156.465,31.5 Z M163.215,25.65 L163.215,5.85 L167.715,5.85 C174.15,5.85 176.4,8.82 176.4,15.75 C176.4,22.68 174.15,25.65 167.715,25.65 L163.215,25.65 Z" id="Shape"></path>
            </g>
        </g>
    </g>
</svg>