<?xml version="1.0" encoding="UTF-8"?>
<svg width="100%" height="100%" viewBox="0 0 322 36" version="1.1" xmlns="http://www.w3.org/2000/svg" xmlns:xlink="http://www.w3.org/1999/xlink">
    <title>Group 3</title>
    <g id="Page-1" stroke="none" stroke-width="1" fill="none" fill-rule="evenodd">
        <g id="Group-3" fill="#00A3DD" fill-rule="nonzero">
            <g id="ATHENID" transform="translate(48.1667, 1.5832)">
                <path d="M0,32.4168169 L9.33337659,32.4168169 L12.3333905,26.6251234 L32.9168192,26.6251234 L35.9168331,32.4168169 L45.7918789,32.4168169 L28.3334646,0 L17.4584142,0 L0,32.4168169 Z M15.9584073,19.6250909 L22.6251049,6.79169814 L29.2918024,19.6250909 L15.9584073,19.6250909 Z" id="Shape"></path>
                <polygon id="Path" points="55.000073 32.4168169 63.4584455 32.4168169 63.5001124 7.0416993 78.2085139 7.0416993 78.2085139 0 40.2916715 0 40.2916715 7.0416993 55.000073 7.0416993"></polygon>
                <polygon id="Path" points="82.7083486 32.4168169 91.1667211 32.4168169 91.1667211 19.7917584 113.750159 19.7917584 113.750159 32.4168169 122.208532 32.4168169 122.208532 0 113.750159 0 113.750159 12.3750573 91.1667211 12.3750573 91.1667211 0 82.7083486 0"></polygon>
                <polygon id="Path" points="128.958349 32.4168169 163.791843 32.4168169 163.791843 25.5001182 137.375054 25.5001182 137.375054 19.2500892 161.875168 19.2500892 161.875168 12.5833916 137.375054 12.5833916 137.375054 6.91669872 163.250174 6.91669872 163.250174 0 128.958349 0"></polygon>
                <polygon id="Path" points="169.625015 32.4168169 177.958387 32.4168169 177.958387 7.70836906 178.041721 7.70836906 198.708483 32.4168169 210.791873 32.4168169 210.791873 0 202.500168 0 202.500168 24.5417804 202.416834 24.5417804 181.916739 0 169.625015 0"></polygon>
                <polygon id="Path" points="217.541682 32.4168169 226.000054 32.4168169 226.000054 0 217.541682 0"></polygon>
                <path d="M232.750015,32.4168169 L252.500107,32.4168169 C269.750187,32.4168169 273.208536,29.2918024 273.208536,16.2084084 C273.208536,3.12501448 269.750187,0 252.500107,0 L232.750015,0 L232.750015,32.4168169 Z M241.208388,25.3751176 L241.208388,7.0416993 L252.500107,7.0416993 C263.458491,7.0416993 264.66683,7.91670335 264.66683,16.1667416 C264.66683,24.5001135 263.458491,25.3751176 252.500107,25.3751176 L241.208388,25.3751176 Z" id="Shape"></path>
            </g>
            <g id="abstract,-geometric,-figure,-shape,-mark,-logo,-sign,-friends,-pair,-round,-logo,-mark,-">
                <path d="M17.9836512,10 C17.493188,10 17.0572207,10.2226981 16.7847411,10.5567452 C15.1498638,12.5053533 12.6975477,13.7301927 10.027248,13.7301927 C7.30245232,13.7301927 4.90463215,12.5053533 3.26975477,10.5567452 C2.94277929,10.2226981 2.50681199,10 2.07084469,10 L1.63487738,10 C0.708446866,10 0,10.7237687 0,11.6702355 L0,17.2376874 C0,27.5931478 8.22888283,36 18.3651226,36 L18.3651226,36 C19.2915531,36 20,35.2762313 20,34.3297645 L20,11.6702355 C20,10.7237687 19.2915531,10 18.3651226,10 L17.9836512,10 Z" id="Path"></path>
                <circle id="Oval" cx="10.5" cy="5.5" r="5.5"></circle>
                <path d="M41.9781421,10 C41.4863388,10 41.0491803,10.2226981 40.7759563,10.5567452 C39.136612,12.5053533 36.6775956,13.7301927 34,13.7301927 C31.2677596,13.7301927 28.863388,12.5053533 27.2240437,10.5567452 C26.8961749,10.2226981 26.4590164,10 26.0218579,10 L25.6393443,10 C24.7103825,10 24,10.7237687 24,11.6702355 L24,34.3297645 C24,35.2762313 24.7103825,36 25.6393443,36 L25.6393443,36 C35.7486339,35.9443255 44,27.5931478 44,17.2376874 L44,11.6702355 C44,10.7237687 43.2896175,10 42.3606557,10 L41.9781421,10 Z" id="Path"></path>
                <circle id="Oval" cx="34.5" cy="5.5" r="5.5"></circle>
            </g>
        </g>
    </g>
</svg>