<?xml version="1.0" encoding="UTF-8"?>
<svg width="100%" height="100%" viewBox="0 0 91 91" version="1.1" xmlns="http://www.w3.org/2000/svg" xmlns:xlink="http://www.w3.org/1999/xlink">
    <title>Path</title>
    <g id="Page-1" stroke="none" stroke-width="1" fill-rule="evenodd">
        <path d="M56.2,45.05 L88.3,77.15 C91.3,80.15 91.3,84.85 88.3,87.85 C85.3,90.85 80.6,90.85 77.6,87.85 L45.5,55.75 L13.4,87.85 C10.4,90.85 5.7,90.85 2.7,87.85 C-0.3,84.85 -0.3,80.15 2.7,77.15 L34.8,45.05 L2.7,12.95 C-0.3,9.95 -0.3,5.25 2.7,2.25 C5.7,-0.75 10.4,-0.75 13.4,2.25 L45.5,34.35 L77.6,2.25 C80.6,-0.75 85.3,-0.75 88.3,2.25 C91.3,5.25 91.3,9.95 88.3,12.95 L56.2,45.05 Z" id="Path" fill="#000000" fill-rule="nonzero"></path>
    </g>
</svg>