<?xml version="1.0" encoding="UTF-8"?>
<svg width="100%" height="100%" viewBox="0 0 50 50" version="1.1" xmlns="http://www.w3.org/2000/svg" xmlns:xlink="http://www.w3.org/1999/xlink">
    <title>Shape</title>
    <g id="Page-1" stroke="none" stroke-width="1" fill-rule="evenodd">
        <path d="M2.234,48.7929 L0.8785,47.4374 C0.52694,47.08193 0.32772,46.60146 0.32772,46.1015 C0.32772,45.59759 0.52694,45.11712 0.88241,44.7656 L12.55441,33.1606 L7.08561,33.156694 C6.04261,33.156694 5.19891,32.312944 5.19891,31.269994 L5.19891,29.387194 C5.19891,28.344194 6.04266,27.500494 7.08561,27.500494 L20.28461,27.500494 C20.78461,27.500494 21.26508,27.699714 21.61661,28.055184 C21.97208,28.406744 22.1713,28.887214 22.1713,29.387184 L22.1713,42.586184 C22.1713,43.086184 21.97208,43.566654 21.61661,43.918184 C21.26505,44.273654 20.78458,44.472874 20.28461,44.472874 L18.40181,44.472874 C17.35881,44.472874 16.51511,43.629124 16.51511,42.586174 L16.51511,37.117374 L4.90611,48.789374 C4.55455,49.144844 4.07408,49.344064 3.57021,49.344064 C3.07021,49.344064 2.58974,49.144844 2.23431,48.793284 L2.234,48.7929 Z M27.828,19.9569 L27.828,6.7579 C27.828,5.7149 28.67175,4.8712 29.7147,4.8712 L31.5975,4.8712 C32.0975,4.8712 32.57797,5.07042 32.9334,5.42589 C33.28496,5.77745 33.48418,6.25792 33.48418,6.75789 L33.48418,12.22669 L45.08918,0.55469 L45.093086,0.55469 C45.444646,0.19922 45.925116,2.84217094e-14 46.428986,2.84217094e-14 C46.928986,2.84217094e-14 47.409456,0.19922 47.764886,0.55078 L49.120386,1.90628 C49.471946,2.26175 49.671166,2.74222 49.671166,3.24218 C49.671166,3.74609 49.471946,4.22656 49.116476,4.57808 L37.444476,16.18308 L42.913276,16.18308 L42.913276,16.186986 C43.413276,16.186986 43.893746,16.386206 44.245276,16.737766 C44.600746,17.093236 44.799966,17.573706 44.799966,18.073666 L44.799966,19.956466 C44.799966,20.456466 44.600746,20.936936 44.245276,21.288466 C43.893716,21.643936 43.413246,21.843156 42.913276,21.843156 L29.714276,21.843156 C28.671276,21.843156 27.827576,20.999406 27.827576,19.956456 L27.828,19.9569 Z" id="Shape" fill="#000000" fill-rule="nonzero"></path>
    </g>
</svg>