<?xml version="1.0" encoding="UTF-8"?>
<svg width="100%" height="100%" viewBox="0 0 100 83" version="1.1" xmlns="http://www.w3.org/2000/svg" xmlns:xlink="http://www.w3.org/1999/xlink">
    <title>noun-team-4806765</title>
    <g id="Page-1" stroke="none" stroke-width="1" fill-rule="evenodd">
        <g id="noun-team-4806765" transform="translate(0, 0)" fill="#000000" fill-rule="nonzero">
            <path d="M49.7961874,82.9755978 C43.4620174,82.9048878 37.3265174,81.9318878 31.6221574,78.9929578 C26.1911474,76.1948978 23.0753874,72.2706278 23.8312374,65.6293678 C24.8128674,57.0048178 26.6851174,48.7634078 31.8251074,41.6086978 C37.3330274,33.9417078 44.4144874,29.2068178 54.3201874,31.1660978 C61.7214574,32.6299178 66.5899474,37.6949078 70.3300074,43.8816378 C74.9116874,51.4606778 76.7225474,59.8437578 76.8462274,68.6102778 C76.8983874,72.3048678 74.8618874,75.0155878 71.9818874,77.0638778 C65.7270474,81.5125778 58.5420674,82.7878378 51.0654974,82.9742278 C50.6426674,82.9847678 50.2193374,82.9755878 49.7961974,82.9755878 L49.7961874,82.9755978 Z" id="Path"></path>
            <path d="M33.4036174,34.7521978 C23.4781174,45.2575678 20.4206074,58.0549778 20.5637574,71.9016978 C15.3171474,73.1509078 4.1155374,70.0810478 1.2052174,64.9044678 C0.0706974033,62.8865678 -0.125172597,60.0395078 0.0622074033,57.6331378 C0.792197403,48.2563378 3.6447174,39.7119878 11.1498774,33.4051678 C17.8075774,27.8102878 27.4370774,28.3271478 33.4036174,34.7521878 L33.4036174,34.7521978 Z" id="Path"></path>
            <path d="M79.8829574,72.3660278 C80.3358674,58.4615078 77.4163674,46.1843578 68.1833974,35.9835478 C66.8804774,34.5440478 67.6063674,33.8304378 68.7173774,32.9589078 C74.7432774,28.2321478 83.3232974,28.2967778 89.3199774,33.4535678 C96.0614174,39.2509678 99.4605674,46.7863978 99.8984774,55.6477578 C99.9901474,57.5037678 99.7364074,59.3884878 99.9507674,61.2239078 C100.253887,63.8183978 99.1339474,65.6069178 97.2265174,67.0833278 C92.1181674,71.0371878 86.2021174,72.2009778 79.8829574,72.3660278 Z" id="Path"></path>
            <path d="M36.7461974,13.5840478 C36.8200774,5.91928781 42.7194374,-0.0395621905 50.1944574,0 C58.1416774,0.0424978095 64.0068074,5.93194781 63.9546474,13.8175078 C63.9045874,21.3841978 57.9043074,27.3029778 50.3477874,27.2394678 C42.5083074,27.1736578 36.6717074,21.3138678 36.7461974,13.5840378 L36.7461974,13.5840478 Z" id="Path"></path>
            <path d="M21.7116874,27.8352278 C15.3446374,27.8760378 10.5325874,23.0762078 10.4765174,16.6287778 C10.4228674,10.4613978 15.3507774,5.50190781 21.5599074,5.47424858 C27.8908574,5.44632781 32.8149274,10.3674278 32.8270991,16.7347778 C32.8389274,22.9628178 28.0003274,27.7949678 21.7116874,27.8352278 L21.7116874,27.8352278 Z" id="Path"></path>
            <path d="M78.7116574,27.8650678 C72.5373874,27.8658778 67.5893774,22.9485678 67.5418674,16.7645578 C67.4936074,10.4711978 72.5107774,5.47189781 78.8259774,5.52076781 C85.0791474,5.56914781 89.9881374,10.4402478 89.9970198,16.6056478 C90.0060674,22.9168678 85.0472574,27.8641978 78.7116574,27.8650678 Z" id="Path"></path>
        </g>
    </g>
</svg>